<mxfile host="app.diagrams.net" modified="2024-05-21T13:23:43.885Z" agent="Mozilla/5.0 (X11; Ubuntu; Linux x86_64; rv:126.0) Gecko/20100101 Firefox/126.0" etag="7PwjGARNm8vXieNWolEo" version="24.4.4" type="github">
  <diagram name="Page-1" id="Y0nVm9wQrHd8LL00vwKS">
    <mxGraphModel dx="1434" dy="795" grid="1" gridSize="10" guides="1" tooltips="1" connect="1" arrows="1" fold="1" page="1" pageScale="1" pageWidth="827" pageHeight="1169" math="0" shadow="0">
      <root>
        <mxCell id="0" />
        <mxCell id="1" parent="0" />
        <mxCell id="oQ2IxoltNnA1zzrH1Bn4-7" value="&lt;div&gt;&lt;br&gt;&lt;/div&gt;" style="rounded=0;orthogonalLoop=1;jettySize=auto;html=1;" edge="1" parent="1" source="oQ2IxoltNnA1zzrH1Bn4-22">
          <mxGeometry x="-1" y="-212" relative="1" as="geometry">
            <mxPoint x="680" y="200" as="targetPoint" />
            <mxPoint x="-193" y="-99" as="offset" />
          </mxGeometry>
        </mxCell>
        <mxCell id="oQ2IxoltNnA1zzrH1Bn4-26" value="&lt;div&gt;&amp;nbsp;moins de 5 empreint&lt;br&gt;&lt;/div&gt;" style="edgeLabel;html=1;align=center;verticalAlign=middle;resizable=0;points=[];" vertex="1" connectable="0" parent="oQ2IxoltNnA1zzrH1Bn4-7">
          <mxGeometry x="-0.1687" y="2" relative="1" as="geometry">
            <mxPoint as="offset" />
          </mxGeometry>
        </mxCell>
        <mxCell id="oQ2IxoltNnA1zzrH1Bn4-10" style="edgeStyle=none;rounded=0;orthogonalLoop=1;jettySize=auto;html=1;entryX=0;entryY=0.5;entryDx=0;entryDy=0;" edge="1" parent="1" source="oQ2IxoltNnA1zzrH1Bn4-1" target="oQ2IxoltNnA1zzrH1Bn4-9">
          <mxGeometry relative="1" as="geometry" />
        </mxCell>
        <mxCell id="oQ2IxoltNnA1zzrH1Bn4-1" value="&lt;div&gt;Abonnee&lt;/div&gt;" style="shape=umlActor;verticalLabelPosition=bottom;verticalAlign=top;html=1;outlineConnect=0;" vertex="1" parent="1">
          <mxGeometry x="90" y="50" width="30" height="60" as="geometry" />
        </mxCell>
        <mxCell id="oQ2IxoltNnA1zzrH1Bn4-5" style="edgeStyle=none;rounded=0;orthogonalLoop=1;jettySize=auto;html=1;" edge="1" parent="1" source="oQ2IxoltNnA1zzrH1Bn4-2" target="oQ2IxoltNnA1zzrH1Bn4-3">
          <mxGeometry relative="1" as="geometry" />
        </mxCell>
        <mxCell id="oQ2IxoltNnA1zzrH1Bn4-15" style="edgeStyle=none;rounded=0;orthogonalLoop=1;jettySize=auto;html=1;" edge="1" parent="1" source="oQ2IxoltNnA1zzrH1Bn4-2">
          <mxGeometry relative="1" as="geometry">
            <mxPoint x="310" y="540" as="targetPoint" />
          </mxGeometry>
        </mxCell>
        <mxCell id="oQ2IxoltNnA1zzrH1Bn4-21" style="edgeStyle=none;rounded=0;orthogonalLoop=1;jettySize=auto;html=1;entryX=0;entryY=0.5;entryDx=0;entryDy=0;" edge="1" parent="1" source="oQ2IxoltNnA1zzrH1Bn4-2" target="oQ2IxoltNnA1zzrH1Bn4-20">
          <mxGeometry relative="1" as="geometry" />
        </mxCell>
        <mxCell id="oQ2IxoltNnA1zzrH1Bn4-2" value="Personnel" style="shape=umlActor;verticalLabelPosition=bottom;verticalAlign=top;html=1;outlineConnect=0;" vertex="1" parent="1">
          <mxGeometry x="80" y="450" width="30" height="60" as="geometry" />
        </mxCell>
        <mxCell id="oQ2IxoltNnA1zzrH1Bn4-33" value="" style="edgeStyle=none;rounded=0;orthogonalLoop=1;jettySize=auto;html=1;" edge="1" parent="1" source="oQ2IxoltNnA1zzrH1Bn4-3" target="oQ2IxoltNnA1zzrH1Bn4-32">
          <mxGeometry relative="1" as="geometry" />
        </mxCell>
        <mxCell id="oQ2IxoltNnA1zzrH1Bn4-3" value="Enregistrer abonnee" style="ellipse;whiteSpace=wrap;html=1;" vertex="1" parent="1">
          <mxGeometry x="294" y="390" width="120" height="80" as="geometry" />
        </mxCell>
        <mxCell id="oQ2IxoltNnA1zzrH1Bn4-30" style="edgeStyle=none;rounded=0;orthogonalLoop=1;jettySize=auto;html=1;entryX=0;entryY=0.5;entryDx=0;entryDy=0;" edge="1" parent="1" source="oQ2IxoltNnA1zzrH1Bn4-9" target="oQ2IxoltNnA1zzrH1Bn4-29">
          <mxGeometry relative="1" as="geometry" />
        </mxCell>
        <mxCell id="oQ2IxoltNnA1zzrH1Bn4-31" value="n° abonné + côte document" style="edgeLabel;html=1;align=center;verticalAlign=middle;resizable=0;points=[];" vertex="1" connectable="0" parent="oQ2IxoltNnA1zzrH1Bn4-30">
          <mxGeometry x="-0.2927" y="-1" relative="1" as="geometry">
            <mxPoint as="offset" />
          </mxGeometry>
        </mxCell>
        <mxCell id="oQ2IxoltNnA1zzrH1Bn4-9" value="&lt;div&gt;consulter document&lt;/div&gt;" style="ellipse;whiteSpace=wrap;html=1;" vertex="1" parent="1">
          <mxGeometry x="294" y="170" width="120" height="80" as="geometry" />
        </mxCell>
        <mxCell id="oQ2IxoltNnA1zzrH1Bn4-14" style="edgeStyle=none;rounded=0;orthogonalLoop=1;jettySize=auto;html=1;entryX=0;entryY=0.5;entryDx=0;entryDy=0;" edge="1" parent="1" source="oQ2IxoltNnA1zzrH1Bn4-11" target="oQ2IxoltNnA1zzrH1Bn4-13">
          <mxGeometry relative="1" as="geometry" />
        </mxCell>
        <mxCell id="oQ2IxoltNnA1zzrH1Bn4-11" value="&lt;div&gt;Benevoles&lt;/div&gt;" style="shape=umlActor;verticalLabelPosition=bottom;verticalAlign=top;html=1;outlineConnect=0;" vertex="1" parent="1">
          <mxGeometry x="80" y="630" width="30" height="60" as="geometry" />
        </mxCell>
        <mxCell id="oQ2IxoltNnA1zzrH1Bn4-19" value="4 semaine" style="edgeStyle=none;rounded=0;orthogonalLoop=1;jettySize=auto;html=1;entryX=0;entryY=0.5;entryDx=0;entryDy=0;" edge="1" parent="1" source="oQ2IxoltNnA1zzrH1Bn4-13" target="oQ2IxoltNnA1zzrH1Bn4-18">
          <mxGeometry relative="1" as="geometry" />
        </mxCell>
        <mxCell id="oQ2IxoltNnA1zzrH1Bn4-13" value="&lt;div&gt;enregistrer empreint&lt;/div&gt;" style="ellipse;whiteSpace=wrap;html=1;" vertex="1" parent="1">
          <mxGeometry x="294" y="505" width="120" height="80" as="geometry" />
        </mxCell>
        <mxCell id="oQ2IxoltNnA1zzrH1Bn4-18" value="relance" style="rounded=0;whiteSpace=wrap;html=1;" vertex="1" parent="1">
          <mxGeometry x="540" y="515" width="120" height="60" as="geometry" />
        </mxCell>
        <mxCell id="oQ2IxoltNnA1zzrH1Bn4-20" value="consulter abonnee" style="ellipse;whiteSpace=wrap;html=1;" vertex="1" parent="1">
          <mxGeometry x="294" y="290" width="120" height="80" as="geometry" />
        </mxCell>
        <mxCell id="oQ2IxoltNnA1zzrH1Bn4-23" value="" style="edgeStyle=none;rounded=0;orthogonalLoop=1;jettySize=auto;html=1;" edge="1" parent="1" source="oQ2IxoltNnA1zzrH1Bn4-1" target="oQ2IxoltNnA1zzrH1Bn4-22">
          <mxGeometry relative="1" as="geometry">
            <mxPoint x="120" y="79" as="sourcePoint" />
            <mxPoint x="370" y="64" as="targetPoint" />
          </mxGeometry>
        </mxCell>
        <mxCell id="oQ2IxoltNnA1zzrH1Bn4-27" value="&lt;div&gt;cotisation paye&lt;/div&gt;" style="edgeLabel;html=1;align=center;verticalAlign=middle;resizable=0;points=[];" vertex="1" connectable="0" parent="oQ2IxoltNnA1zzrH1Bn4-23">
          <mxGeometry x="-0.1486" y="1" relative="1" as="geometry">
            <mxPoint as="offset" />
          </mxGeometry>
        </mxCell>
        <mxCell id="oQ2IxoltNnA1zzrH1Bn4-22" value="&lt;div&gt;carte abonnee&lt;/div&gt;" style="ellipse;whiteSpace=wrap;html=1;" vertex="1" parent="1">
          <mxGeometry x="294" y="20" width="120" height="80" as="geometry" />
        </mxCell>
        <mxCell id="oQ2IxoltNnA1zzrH1Bn4-34" style="edgeStyle=orthogonalEdgeStyle;rounded=0;orthogonalLoop=1;jettySize=auto;html=1;entryX=0.5;entryY=1;entryDx=0;entryDy=0;" edge="1" parent="1" source="oQ2IxoltNnA1zzrH1Bn4-29" target="oQ2IxoltNnA1zzrH1Bn4-13">
          <mxGeometry relative="1" as="geometry">
            <mxPoint x="740" y="690" as="targetPoint" />
            <Array as="points">
              <mxPoint x="770" y="640" />
              <mxPoint x="354" y="640" />
            </Array>
          </mxGeometry>
        </mxCell>
        <mxCell id="oQ2IxoltNnA1zzrH1Bn4-29" value="empreinter document" style="rounded=0;whiteSpace=wrap;html=1;" vertex="1" parent="1">
          <mxGeometry x="680" y="170" width="120" height="60" as="geometry" />
        </mxCell>
        <mxCell id="oQ2IxoltNnA1zzrH1Bn4-32" value="modifier adresse" style="whiteSpace=wrap;html=1;" vertex="1" parent="1">
          <mxGeometry x="510" y="400" width="120" height="60" as="geometry" />
        </mxCell>
      </root>
    </mxGraphModel>
  </diagram>
</mxfile>
